<svg width="104" height="103" viewBox="0 0 104 103" fill="none" xmlns="http://www.w3.org/2000/svg">
<circle cx="51.8343" cy="51.4999" r="51.4202" fill="#08204F"/>
<path d="M83.0601 24.8276C84.0103 26.8232 84.5448 28.8187 84.6636 30.8142C84.8062 32.8098 84.5448 34.7697 83.8797 36.6939C83.2382 38.5944 82.2048 40.4356 80.7794 42.2173C79.3778 43.999 77.6199 45.6501 75.5056 47.1705L72.4766 45.2462C72.2628 45.1274 72.0965 44.9611 71.9777 44.7473C71.8589 44.5098 71.7996 44.2722 71.7996 44.0346C71.7996 43.7021 71.8827 43.417 72.049 43.1794C72.2153 42.9418 72.4766 42.633 72.833 42.2529C73.1418 41.8966 73.5456 41.3383 74.0445 40.5781C74.5672 39.8179 74.9948 38.9033 75.3274 37.8342C75.66 36.7652 75.8144 35.5655 75.7906 34.2351C75.7669 32.881 75.3868 31.4319 74.6503 29.8877C74.389 29.3413 74.4246 28.8306 74.7572 28.3555C75.1136 27.8566 75.6481 27.4765 76.3608 27.2152L83.0601 24.8276Z" fill="#DAEFFB"/>
<path d="M46.1032 46.0658C47.7662 44.2128 49.536 42.8468 51.4128 41.9678C53.2895 41.0889 55.2256 40.6494 57.2212 40.6494C58.7653 40.6494 60.167 40.9582 61.4261 41.5759C62.7089 42.1935 63.7779 43.0963 64.6332 44.2841C65.4884 45.4719 66.0942 46.9448 66.4505 48.7028C66.8069 50.437 66.8425 52.4325 66.5574 54.6894L63.7779 78.1725H52.7312L55.5107 54.6894C55.6295 53.6916 55.6651 52.8482 55.6176 52.1593C55.5701 51.4704 55.4395 50.9121 55.2256 50.4845C55.0118 50.0569 54.7149 49.7599 54.3348 49.5936C53.9547 49.4036 53.4914 49.3085 52.945 49.3085C52.2086 49.3085 51.4365 49.5342 50.6288 49.9856C49.8211 50.4132 49.0371 51.0309 48.2769 51.8386C47.5405 52.6463 46.8397 53.6322 46.1745 54.7963C45.5331 55.9366 44.9985 57.2075 44.5709 58.6092L42.1834 78.1725H31.1367L37.6222 24.8276H48.6689L46.1032 46.0658Z" fill="#DAEFFB"/>
</svg>
