<svg width="106" height="35" viewBox="0 0 106 35" fill="none" xmlns="http://www.w3.org/2000/svg">
<path d="M105.058 0.485596C105.538 1.4936 105.808 2.5016 105.868 3.5096C105.94 4.5176 105.808 5.5076 105.472 6.4796C105.148 7.4396 104.626 8.3696 103.906 9.2696C103.198 10.1696 102.31 11.0036 101.242 11.7716L99.712 10.7996C99.604 10.7396 99.52 10.6556 99.46 10.5476C99.4 10.4276 99.37 10.3076 99.37 10.1876C99.37 10.0196 99.412 9.8756 99.496 9.7556C99.58 9.6356 99.712 9.4796 99.892 9.2876C100.048 9.1076 100.252 8.8256 100.504 8.4416C100.768 8.0576 100.984 7.5956 101.152 7.0556C101.32 6.5156 101.398 5.9096 101.386 5.2376C101.374 4.5536 101.182 3.8216 100.81 3.0416C100.678 2.7656 100.696 2.5076 100.864 2.2676C101.044 2.0156 101.314 1.8236 101.674 1.6916L105.058 0.485596Z" fill="#DAEFFB"/>
<path d="M87.193 12.8156C88.093 11.6156 89.077 10.7336 90.145 10.1696C91.213 9.59357 92.317 9.30557 93.457 9.30557C94.225 9.30557 94.927 9.46157 95.563 9.77357C96.211 10.0856 96.745 10.5416 97.165 11.1416C97.597 11.7416 97.903 12.4856 98.083 13.3736C98.263 14.2496 98.281 15.2576 98.137 16.3976L96.733 28.2596H91.153L92.557 16.3976C92.617 15.8936 92.635 15.4676 92.611 15.1196C92.599 14.7716 92.539 14.4956 92.431 14.2916C92.323 14.0876 92.173 13.9436 91.981 13.8596C91.789 13.7636 91.561 13.7156 91.297 13.7156C90.889 13.7156 90.463 13.8416 90.019 14.0936C89.575 14.3456 89.149 14.7056 88.741 15.1736C88.345 15.6296 87.979 16.1876 87.643 16.8476C87.307 17.4956 87.043 18.2156 86.851 19.0076L85.825 28.2596H80.245L82.477 9.59357H85.357C85.933 9.59357 86.383 9.73157 86.707 10.0076C87.031 10.2716 87.193 10.7096 87.193 11.3216V12.8156Z" fill="#DAEFFB"/>
<path d="M80.2526 9.5936L78.0206 28.2596H72.5126L74.7446 9.5936H80.2526ZM81.2966 4.4816C81.2966 4.9256 81.2006 5.3456 81.0086 5.7416C80.8166 6.1256 80.5646 6.4676 80.2526 6.7676C79.9406 7.0556 79.5806 7.2896 79.1726 7.4696C78.7766 7.6376 78.3686 7.7216 77.9486 7.7216C77.5286 7.7216 77.1266 7.6376 76.7426 7.4696C76.3586 7.2896 76.0166 7.0556 75.7166 6.7676C75.4286 6.4676 75.1946 6.1256 75.0146 5.7416C74.8346 5.3456 74.7446 4.9256 74.7446 4.4816C74.7446 4.0376 74.8346 3.6176 75.0146 3.2216C75.1946 2.8256 75.4346 2.4776 75.7346 2.17759C76.0466 1.87759 76.3946 1.6436 76.7786 1.4756C77.1626 1.2956 77.5646 1.2056 77.9846 1.2056C78.4166 1.2056 78.8306 1.2896 79.2266 1.4576C79.6226 1.6256 79.9706 1.8596 80.2706 2.1596C80.5826 2.4596 80.8286 2.8076 81.0086 3.2036C81.2006 3.5996 81.2966 4.0256 81.2966 4.4816Z" fill="#DAEFFB"/>
<path d="M61.6926 30.9596C62.2446 30.9596 62.7546 30.8876 63.2226 30.7436C63.6906 30.5996 64.0866 30.3956 64.4106 30.1316C64.7466 29.8796 65.0046 29.5736 65.1846 29.2136C65.3766 28.8536 65.4726 28.4516 65.4726 28.0076C65.4726 27.9356 65.4726 27.8636 65.4726 27.7916C65.4726 27.7196 65.4666 27.6536 65.4546 27.5936C64.2306 27.3896 63.1866 27.2936 62.3226 27.3056C61.4706 27.3176 60.7806 27.4076 60.2526 27.5756C59.7246 27.7316 59.3406 27.9476 59.1006 28.2236C58.8606 28.4876 58.7406 28.7816 58.7406 29.1056C58.7406 29.7176 58.9626 30.1796 59.4066 30.4916C59.8626 30.8036 60.6246 30.9596 61.6926 30.9596ZM63.2406 19.2416C63.6846 19.2416 64.0686 19.1276 64.3926 18.8996C64.7286 18.6716 65.0046 18.3776 65.2206 18.0176C65.4366 17.6456 65.5986 17.2316 65.7066 16.7756C65.8266 16.3196 65.8926 15.8576 65.9046 15.3896C65.9046 14.6096 65.7426 14.0036 65.4186 13.5716C65.0946 13.1396 64.5966 12.9236 63.9246 12.9236C63.4806 12.9236 63.0906 13.0316 62.7546 13.2476C62.4306 13.4516 62.1606 13.7276 61.9446 14.0756C61.7286 14.4236 61.5666 14.8256 61.4586 15.2816C61.3506 15.7376 61.2966 16.2116 61.2966 16.7036C61.2966 17.4956 61.4586 18.1196 61.7826 18.5756C62.1066 19.0196 62.5926 19.2416 63.2406 19.2416ZM73.7886 10.2776L73.5366 12.0236C73.4286 12.7076 73.0806 13.1696 72.4926 13.4096L70.9086 13.9496C70.9806 14.3336 71.0166 14.7416 71.0166 15.1736C71.0166 15.9416 70.9086 16.5956 70.6926 17.1356C70.4886 17.6756 70.2606 18.1856 70.0086 18.6656C69.7566 19.1456 69.5226 19.6376 69.3066 20.1416C69.1026 20.6456 69.0006 21.2396 69.0006 21.9236C69.0006 22.4156 69.0786 22.8716 69.2346 23.2916C69.4026 23.6996 69.5826 24.1196 69.7746 24.5516C69.9666 24.9836 70.1406 25.4396 70.2966 25.9196C70.4646 26.3996 70.5486 26.9516 70.5486 27.5756C70.5366 28.5356 70.3206 29.4416 69.9006 30.2936C69.4806 31.1576 68.8746 31.9076 68.0826 32.5436C67.2906 33.1916 66.3186 33.7016 65.1666 34.0736C64.0146 34.4576 62.7006 34.6496 61.2246 34.6496C60.0126 34.6496 58.9266 34.5236 57.9666 34.2716C57.0066 34.0196 56.1906 33.6776 55.5186 33.2456C54.8586 32.8136 54.3486 32.2976 53.9886 31.6976C53.6286 31.1096 53.4486 30.4736 53.4486 29.7896C53.4486 28.8896 53.6466 28.1156 54.0426 27.4676C54.4386 26.8196 54.9606 26.2856 55.6086 25.8656C56.2566 25.4336 56.9946 25.1036 57.8226 24.8756C58.6506 24.6356 59.4966 24.4736 60.3606 24.3896C61.2246 24.2936 62.0646 24.2696 62.8806 24.3176C63.6966 24.3536 64.4226 24.4316 65.0586 24.5516C65.0226 24.2636 65.0046 23.9636 65.0046 23.6516C65.0046 22.9916 65.1666 22.2656 65.4906 21.4736C65.0346 21.7856 64.5006 22.0316 63.8886 22.2116C63.2766 22.3916 62.5206 22.4816 61.6206 22.4816C60.9126 22.4816 60.2346 22.3676 59.5866 22.1396C58.9386 21.8996 58.3626 21.5396 57.8586 21.0596C57.3666 20.5796 56.9706 19.9796 56.6706 19.2596C56.3706 18.5276 56.2206 17.6636 56.2206 16.6676C56.2206 15.7436 56.3946 14.8436 56.7426 13.9676C57.1026 13.0796 57.6306 12.2936 58.3266 11.6096C59.0346 10.9136 59.9046 10.3556 60.9366 9.93558C61.9806 9.51557 63.1926 9.30557 64.5726 9.30557C65.2926 9.30557 65.9766 9.38957 66.6246 9.55758C67.2726 9.71358 67.8726 9.95357 68.4246 10.2776H73.7886Z" fill="#DAEFFB"/>
<path d="M43.6653 12.8156C44.5653 11.6156 45.5493 10.7336 46.6173 10.1696C47.6853 9.59357 48.7893 9.30557 49.9293 9.30557C50.6973 9.30557 51.3993 9.46157 52.0353 9.77357C52.6833 10.0856 53.2173 10.5416 53.6373 11.1416C54.0693 11.7416 54.3753 12.4856 54.5553 13.3736C54.7353 14.2496 54.7533 15.2576 54.6093 16.3976L53.2053 28.2596H47.6253L49.0293 16.3976C49.0893 15.8936 49.1073 15.4676 49.0833 15.1196C49.0713 14.7716 49.0113 14.4956 48.9033 14.2916C48.7953 14.0876 48.6453 13.9436 48.4533 13.8596C48.2613 13.7636 48.0333 13.7156 47.7693 13.7156C47.3613 13.7156 46.9353 13.8416 46.4913 14.0936C46.0473 14.3456 45.6213 14.7056 45.2133 15.1736C44.8173 15.6296 44.4513 16.1876 44.1153 16.8476C43.7793 17.4956 43.5153 18.2156 43.3233 19.0076L42.2973 28.2596H36.7173L38.9493 9.59357H41.8293C42.4053 9.59357 42.8553 9.73157 43.1793 10.0076C43.5033 10.2716 43.6653 10.7096 43.6653 11.3216V12.8156Z" fill="#DAEFFB"/>
<path d="M30.7135 13.1396C29.8015 13.1396 28.9675 13.3436 28.2115 13.7516C27.4675 14.1596 26.8255 14.7176 26.2855 15.4256C25.7455 16.1216 25.3255 16.9376 25.0255 17.8736C24.7375 18.7976 24.5935 19.7876 24.5935 20.8436C24.5935 21.4436 24.6415 21.9536 24.7375 22.3736C24.8335 22.7936 24.9595 23.1356 25.1155 23.3996C25.2835 23.6516 25.4755 23.8376 25.6915 23.9576C25.9195 24.0776 26.1655 24.1376 26.4295 24.1376C26.8375 24.1376 27.2335 23.9876 27.6175 23.6876C28.0015 23.3756 28.3615 22.9556 28.6975 22.4276C29.0455 21.8996 29.3635 21.2816 29.6515 20.5736C29.9395 19.8656 30.1855 19.1096 30.3895 18.3056L31.0555 13.1396H30.7135ZM29.8495 25.1456C29.0935 26.2016 28.2415 27.0356 27.2935 27.6476C26.3575 28.2476 25.3255 28.5476 24.1975 28.5476C23.5255 28.5476 22.8775 28.4156 22.2535 28.1516C21.6295 27.8756 21.0775 27.4676 20.5975 26.9276C20.1175 26.3756 19.7335 25.6796 19.4455 24.8396C19.1575 23.9876 19.0135 22.9856 19.0135 21.8336C19.0135 20.1416 19.3195 18.5396 19.9315 17.0276C20.5555 15.5036 21.4195 14.1716 22.5235 13.0316C23.6395 11.8916 24.9595 10.9856 26.4835 10.3136C28.0075 9.64157 29.6815 9.30557 31.5055 9.30557C32.3935 9.30557 33.2935 9.36557 34.2055 9.48557C35.1175 9.60557 36.0175 9.82157 36.9055 10.1336L34.6375 28.2596H31.6495C31.3015 28.2596 31.0075 28.2176 30.7675 28.1336C30.5395 28.0376 30.3535 27.9116 30.2095 27.7556C30.0775 27.5996 29.9815 27.4136 29.9215 27.1976C29.8735 26.9816 29.8495 26.7476 29.8495 26.4956V25.1456Z" fill="#DAEFFB"/>
<path d="M8.18622 12.0416C9.02622 11.1056 9.92022 10.4156 10.8682 9.97157C11.8162 9.52757 12.7942 9.30557 13.8022 9.30557C14.5822 9.30557 15.2902 9.46157 15.9262 9.77357C16.5742 10.0856 17.1142 10.5416 17.5462 11.1416C17.9782 11.7416 18.2842 12.4856 18.4642 13.3736C18.6442 14.2496 18.6622 15.2576 18.5182 16.3976L17.1142 28.2596H11.5342L12.9382 16.3976C12.9982 15.8936 13.0162 15.4676 12.9922 15.1196C12.9682 14.7716 12.9022 14.4896 12.7942 14.2736C12.6862 14.0576 12.5362 13.9076 12.3442 13.8236C12.1522 13.7276 11.9182 13.6796 11.6422 13.6796C11.2702 13.6796 10.8802 13.7936 10.4722 14.0216C10.0642 14.2376 9.66822 14.5496 9.28422 14.9576C8.91222 15.3656 8.55822 15.8636 8.22222 16.4516C7.89822 17.0276 7.62822 17.6696 7.41222 18.3776L6.20622 28.2596H0.626221L3.90222 1.31357H9.48222L8.18622 12.0416Z" fill="#DAEFFB"/>
</svg>
